# xmcd
#
# Track frame offsets:
#	183
#	6460
#	28403
#	49530
#	54890
#	70978
#	90425
#	108868
#	134103
#	153205
#	174235
#	178105
#	197078
#
# Disc length: 2704 seconds
#
# Revision: 17
# Processed by: cddbd v1.5.2PL0 Copyright (c) Steve Scherf et al.
# Submitted via: Jack! The Knife 20 Magnifico
#
DISCID=aa0a8e0d
DTITLE=Coroner - R.I.P.
DYEAR=1987
DGENRE=Metal
TTITLE0=Intro
TTITLE1=Reborn Through Hate
TTITLE2=When Angels Die
TTITLE3=Intro (Nosferatu)
TTITLE4=Nosferatu
TTITLE5=Suicide Command
TTITLE6=Spiral Dream
TTITLE7=R.I.P.
TTITLE8=Coma
TTITLE9=Fried Alive
TTITLE10=Intro (Totentanz)
TTITLE11=Totentanz
TTITLE12=Outro
EXTD=Harris Johns and Coroner
EXTT0=Royce, Baron, Marky
EXTT1=Royce, Baron, Marky
EXTT2=Royce, Baron, Marky
EXTT3=Royce, Baron, Marky
EXTT4=Royce, Baron, Marky
EXTT5=Royce, Baron, Marky
EXTT6=Royce, Baron, Warrior
EXTT7=Royce, Baron, Marky
EXTT8=Royce, Baron, Marky
EXTT9=Royce, Baron, Marky
EXTT10=Robert de Visée
EXTT11=Royce, Baron, Siegrist
EXTT12=Royce, Baron, Marky
PLAYORDER=
